tugOfWar_states
version=1
nRows=18
nColumns=19
inDegrees=yes

# SIMM Motion File Header:
name tugOfWar_states
datacolumns 19
datarows 18
otherdata 1
range 2.50598715 2.52821803
endheader
time	blockToGround_xRotation	blockToGround_yRotation	blockToGround_zRotation	blockToGround_xTranslation	blockToGround_yTranslation	blockToGround_zTranslation	blockToGround_xRotation_u	blockToGround_yRotation_u	blockToGround_zRotation_u	blockToGround_xTranslation_u	blockToGround_yTranslation_u	blockToGround_zTranslation_u	Liu.activation	Liu.active_motor_units	Liu.fatigued_motor_units	Liu.fiber_length	Thelen.activation	Thelen.fiber_length
      2.50598715	      0.00000000	     -0.00000000	      0.00000000	     -0.00233024	     -0.00021079	      0.00294267	      0.00000000	     -0.00000000	      0.00000000	     -0.00603513	     -0.03864800	      0.00025031	      0.50135790	      0.17979229	      0.50135790	      0.10000000	      0.50135790	      0.09325636
      2.50779907	      0.00000000	     -0.00000000	      0.00000000	     -0.00234176	     -0.00027765	      0.00294323	      0.00000000	     -0.00000000	      0.00000000	     -0.00672202	     -0.03413815	      0.00037769	      0.50160873	      0.17992620	      0.50160873	      0.10000000	      0.50160873	      0.09325529
      2.50893433	      0.00000000	     -0.00000000	      0.00000000	     -0.00234967	     -0.00031334	      0.00294371	      0.00000000	     -0.00000000	      0.00000000	     -0.00722450	     -0.02839870	      0.00046764	      0.50209759	      0.18001010	      0.50209759	      0.10000000	      0.50209759	      0.09325449
      2.51006958	      0.00000000	     -0.00000000	      0.00000000	     -0.00235815	     -0.00034143	      0.00294430	      0.00000000	     -0.00000000	      0.00000000	     -0.00769753	     -0.02083287	      0.00055929	      0.50209737	      0.18009404	      0.50209737	      0.10000000	      0.50209737	      0.09325365
      2.51139722	      0.00000000	     -0.00000000	      0.00000000	     -0.00236868	     -0.00036227	      0.00294510	      0.00000000	     -0.00000000	      0.00000000	     -0.00814634	     -0.01032645	      0.00065038	      0.50253373	      0.18019234	      0.50253373	      0.10000000	      0.50253373	      0.09325258
      2.51272486	      0.00000000	     -0.00000000	      0.00000000	     -0.00237972	     -0.00036845	      0.00294602	      0.00000000	     -0.00000000	      0.00000000	     -0.00845623	      0.00108430	      0.00071934	      0.50255881	      0.18029082	      0.50255881	      0.10000000	      0.50255881	      0.09325147
      2.51370544	      0.00000000	     -0.00000000	      0.00000000	     -0.00238809	     -0.00036324	      0.00294674	      0.00000000	     -0.00000000	      0.00000000	     -0.00860196	      0.00950590	      0.00074907	      0.50310925	      0.18036372	      0.50310925	      0.10000000	      0.50310925	      0.09325051
      2.51468602	      0.00000000	     -0.00000000	      0.00000000	     -0.00239657	     -0.00034996	      0.00294748	      0.00000000	     -0.00000000	      0.00000000	     -0.00868859	      0.01746923	      0.00076543	      0.50310899	      0.18043675	      0.50310899	      0.10000000	      0.50310899	      0.09324948
      2.51661404	      0.00000000	     -0.00000000	      0.00000000	     -0.00241338	     -0.00030313	      0.00294895	      0.00000000	     -0.00000000	      0.00000000	     -0.00872347	      0.03035290	      0.00074906	      0.50337986	      0.18058075	      0.50337986	      0.10000000	      0.50337986	      0.09324749
      2.51779455	      0.00000000	     -0.00000000	      0.00000000	     -0.00242365	     -0.00026397	      0.00294982	      0.00000000	     -0.00000000	      0.00000000	     -0.00867228	      0.03560124	      0.00071113	      0.50385983	      0.18066918	      0.50385983	      0.10000000	      0.50385983	      0.09324616
      2.51897505	      0.00000000	     -0.00000000	      0.00000000	     -0.00243383	     -0.00022005	      0.00295063	      0.00000000	     -0.00000000	      0.00000000	     -0.00857010	      0.03837426	      0.00065924	      0.50385961	      0.18075777	      0.50385961	      0.10000000	      0.50385961	      0.09324484
      2.52020940	      0.00000000	     -0.00000000	      0.00000000	     -0.00244432	     -0.00017235	      0.00295140	      0.00000000	     -0.00000000	      0.00000000	     -0.00840625	      0.03842006	      0.00058787	      0.50434361	      0.18085055	      0.50434361	      0.10000000	      0.50434361	      0.09324343
      2.52144374	      0.00000000	     -0.00000000	      0.00000000	     -0.00245456	     -0.00012641	      0.00295208	      0.00000000	     -0.00000000	      0.00000000	     -0.00817797	      0.03554788	      0.00050883	      0.50434339	      0.18094343	      0.50434339	      0.10000000	      0.50434339	      0.09324210
      2.52263842	      0.00000000	     -0.00000000	      0.00000000	     -0.00246416	     -0.00008690	      0.00295263	      0.00000000	     -0.00000000	      0.00000000	     -0.00788925	      0.03019313	      0.00042384	      0.50485956	      0.18103339	      0.50485956	      0.10000000	      0.50485956	      0.09324082
      2.52383311	      0.00000000	     -0.00000000	      0.00000000	     -0.00247338	     -0.00005512	      0.00295309	      0.00000000	     -0.00000000	      0.00000000	     -0.00753095	      0.02268939	      0.00034140	      0.50485931	      0.18112335	      0.50485931	      0.10000000	      0.50485931	      0.09323962
      2.52535256	      0.00000000	     -0.00000000	      0.00000000	     -0.00248442	     -0.00002936	      0.00295353	      0.00000000	     -0.00000000	      0.00000000	     -0.00698514	      0.01089559	      0.00023948	      0.50545940	      0.18123771	      0.50545940	      0.10000000	      0.50545940	      0.09323813
      2.52687202	      0.00000000	     -0.00000000	      0.00000000	     -0.00249458	     -0.00002265	      0.00295383	      0.00000000	     -0.00000000	      0.00000000	     -0.00638157	     -0.00214812	      0.00016084	      0.50545904	      0.18135190	      0.50545904	      0.10000000	      0.50545904	      0.09323686
      2.52821803	      0.00000000	     -0.00000000	      0.00000000	     -0.00250282	     -0.00003329	      0.00295401	      0.00000000	     -0.00000000	      0.00000000	     -0.00586524	     -0.01354460	      0.00010715	      0.50590730	      0.18145285	      0.50590730	      0.10000000	      0.50590730	      0.09323585
